<svg width="24" height="25" viewBox="0 0 24 25" fill="none" xmlns="http://www.w3.org/2000/svg">
<g id="Frame">
<path id="Vector" d="M5.88401 19.1533C5.58404 18.9526 5.32587 18.6975 5.0239 18.3369C4.91473 18.2065 4.47283 17.6524 4.55811 17.7583C4.09533 17.1833 3.80296 16.917 3.50156 16.8089C2.9817 16.6225 2.7114 16.0499 2.89784 15.5301C3.08428 15.0102 3.65685 14.7399 4.17672 14.9263C4.92936 15.1963 5.43847 15.6611 6.12425 16.5143C6.03025 16.3974 6.46364 16.941 6.55731 17.0529C6.74784 17.2804 6.88732 17.4182 6.99629 17.4911C7.20118 17.6283 7.58451 17.6874 8.14709 17.6311C8.17065 17.2489 8.24136 16.8783 8.34919 16.5358C5.38097 15.8104 3.70116 13.8952 3.70116 10.1397C3.70116 8.90085 4.0704 7.78393 4.75917 6.8478C4.5415 5.95392 4.57433 4.87284 5.06092 3.65636C5.1725 3.37739 5.40361 3.16338 5.69031 3.07352C5.77242 3.04973 5.81791 3.03915 5.89878 3.02673C6.70167 2.90343 7.83573 3.19705 9.31449 4.12336C10.181 3.91879 11.0885 3.815 12.0012 3.815C12.9129 3.815 13.8196 3.9186 14.6854 4.12277C16.1619 3.19 17.2986 2.89649 18.1072 3.02651C18.1919 3.04013 18.2645 3.05783 18.3249 3.07766C18.6059 3.16991 18.8316 3.38179 18.9414 3.65636C19.4279 4.87256 19.4608 5.95344 19.2433 6.8472C19.9342 7.78337 20.3012 8.89208 20.3012 10.1397C20.3012 13.8968 18.627 15.8048 15.6588 16.532C15.7837 16.947 15.8496 17.4105 15.8496 17.9121C15.8496 18.5765 15.8471 19.211 15.8424 19.9225C15.8412 20.1127 15.8397 20.3159 15.8375 20.6281C16.2129 20.7109 16.5229 21.0077 16.6031 21.4089C16.7114 21.9504 16.3602 22.4773 15.8186 22.5856C14.6794 22.8134 13.8353 22.0538 13.8353 21.0611C13.8353 20.9708 13.836 20.8417 13.8375 20.6145C13.8398 20.3015 13.8412 20.099 13.8425 19.9094C13.8471 19.2019 13.8496 18.5716 13.8496 17.9121C13.8496 17.2148 13.6664 16.7602 13.4237 16.551C12.7627 15.9812 13.0977 14.8973 13.965 14.7999C16.9314 14.4666 18.3012 13.3177 18.3012 10.1397C18.3012 9.18508 17.9893 8.39571 17.3881 7.73559C17.1301 7.45233 17.0567 7.04659 17.199 6.69087C17.3647 6.27663 17.4354 5.73384 17.2941 5.07702L17.2847 5.07968C16.7928 5.21886 16.1744 5.5198 15.4261 6.0285C15.182 6.19438 14.8772 6.24401 14.5932 6.16413C13.7729 5.93343 12.8913 5.815 12.0012 5.815C11.111 5.815 10.2294 5.93343 9.40916 6.16413C9.12662 6.24359 8.82344 6.19492 8.57997 6.03101C7.8274 5.52439 7.2056 5.22379 6.71079 5.08376C6.56735 5.73696 6.63814 6.27782 6.80336 6.69087C6.94565 7.04659 6.87219 7.45233 6.61423 7.73559C6.01715 8.3912 5.70116 9.19376 5.70116 10.1397C5.70116 13.3116 7.07225 14.4683 10.023 14.7999C10.8883 14.8971 11.2246 15.9769 10.5675 16.5482C10.3751 16.7156 10.1384 17.2802 10.1384 17.9121V21.0611C10.1384 22.0474 9.30356 22.7869 8.17878 22.59C7.63476 22.4948 7.27093 21.9766 7.36613 21.4326C7.43827 21.0204 7.75331 20.7116 8.13841 20.6276V19.6381C7.22829 19.6994 6.47656 19.5498 5.88401 19.1533Z" fill="black"/>
</g>
</svg>
