<svg width="201" height="200" viewBox="0 0 201 200" fill="none" xmlns="http://www.w3.org/2000/svg">
<g id="Hanzi 1">
<path id="Vector" d="M121.414 27.0286C122.9 28.3429 124.5 29.7714 126.157 31.3143C127.129 32.2286 128.1 32.5714 129.186 32.4571C129.871 32.4 130.386 31.9429 130.729 31.0286C130.957 29.9429 130.786 28.4571 130.214 26.4571C129.529 24.6286 126.386 23.2 120.843 22.1714C119.757 21.9429 119.014 21.9429 118.614 22.1714C118.271 22.4 118.157 22.9714 118.329 23.8857C118.5 24.6857 119.529 25.7143 121.414 27.0286ZM111.071 42.9714C114.329 46.5143 117.014 48.6857 119.014 49.4857C119.986 49.6571 120.729 49.3143 121.357 48.4C121.7 47.6 121.814 46.6857 121.643 45.6571C120.957 42.9714 117.871 40.8571 112.443 39.3143C112.386 39.2571 112.329 39.2 112.271 39.2C111.186 38.9714 110.386 38.9143 109.757 39.0857C109.357 39.1429 109.243 39.6 109.471 40.4C109.529 41.2571 110.043 42.1143 111.071 42.9714ZM111.414 77.9429C110.614 78.1714 110.329 78.8571 110.5 80C111.186 84.6286 112.786 87.6 115.129 88.9143C115.529 89.3143 116.1 89.4286 116.729 89.2572C117.243 89.2 117.529 88.3428 117.529 86.7429C117.929 83.5429 121.643 73.3143 128.557 56.1714C128.957 55.2 129.129 54.5143 129.071 54.0571C129.014 53.4857 128.729 53.3714 128.157 53.7714C127.471 54.1714 126.729 54.9714 126.043 56.1143C122.271 62.2286 118.786 68.0571 115.529 73.6C114.729 75.0857 113.3 76.5143 111.414 77.9429ZM147.071 66.9714C142.729 72.8571 135.471 78.7429 125.243 84.6286C124.271 85.2 124.1 85.6571 124.614 85.9429C125.014 86.1143 125.986 85.8857 127.529 85.3143C134.329 82.8 139.814 80.0571 144.043 77.0857C146.043 75.6 148.043 73.6572 150.043 71.2C153.071 75.2 156.443 79.2571 160.214 83.4857C161.357 84.9714 162.843 85.8286 164.786 86C170.729 86.8 176.214 87.0857 181.186 86.9143C183.757 86.8571 184.957 86.4571 184.843 85.7714C184.671 85.2571 178.786 82.5714 167.186 77.8286C162.5 75.3143 157.814 71.7714 153.071 67.1429C153.643 66.0571 154.329 65.0286 155.129 63.9429C158.5 58.6857 161.243 52.3429 163.243 44.8571C163.929 42 165.3 39.6571 167.357 37.8286C168.614 36.6857 168.671 35.7143 167.529 34.8C166.043 33.8286 164.329 33.1429 162.386 32.6857C160.614 32.1143 158.9 32.2857 157.243 33.2C154.843 34 151.586 34.9143 147.414 36.0571C142.729 36.8571 137.986 37.3714 133.129 37.6571C131.986 37.6571 131.3 37.8286 131.014 38.1714C130.786 38.9714 131.357 39.8286 132.786 40.7429C134.557 42 137.529 41.9429 141.586 40.6286C150.671 38.0571 155.757 36.9714 156.729 37.2571C157.529 37.2571 157.929 37.9429 157.986 39.3714C156.329 48.6286 153.529 56.6286 149.586 63.3714C146.843 60.2857 144.043 56.8571 141.186 53.0286C139.186 50.1714 137.014 48.6286 134.671 48.4C133.529 48.2286 132.843 48.2857 132.557 48.5714C132.386 48.9714 132.786 49.6 133.7 50.4571C136.9 52.9714 141.357 58.4571 147.071 66.9714Z" fill="#990000"/>
<path id="Vector_2" d="M141.414 110.457C143.929 113.486 146.214 115.371 148.271 116.114C149.3 116.286 150.1 115.886 150.729 114.914C151.129 114.057 151.243 113.086 151.014 111.943C150.5 110.343 149.643 109.086 148.386 108.286C144.557 106.4 141.814 105.771 140.1 106.457C140.043 106.457 139.929 106.514 139.814 106.571C139.414 106.629 139.3 107.086 139.529 107.943C139.643 108.686 140.271 109.486 141.414 110.457ZM124.329 125.543C125.871 126.457 127.7 126.629 129.7 126.057C137.186 123.6 147.129 121.714 159.529 120.4C162.386 120.057 164.214 120 165.071 120.229C165.643 120.629 165.871 121.086 165.7 121.543C165.7 121.714 164.443 124.171 161.986 128.857C161.414 129.771 161.3 130.343 161.643 130.571C162.214 130.8 163.071 130.571 164.157 129.886C167.871 127.6 171.243 126.171 174.329 125.429C176.843 124.914 178.043 124.286 177.986 123.6C177.814 123.029 175.586 121.029 171.357 117.714C169.814 116.457 166.386 116.343 161.071 117.371C157.586 117.771 148.5 119.2 133.757 121.714C130.729 122.229 127.757 122.686 124.729 123.086C124.157 121.314 123.414 120.114 122.443 119.543C121.357 118.686 120.729 119.029 120.614 120.571C120.957 123.086 119.357 126.343 115.757 130.457C114.729 131.657 114.843 133.657 116.1 136.457C116.157 136.686 116.329 136.971 116.557 137.314C117.643 138.686 118.671 138.629 119.529 137.143C120.557 135.6 121.414 133.714 122.157 131.486C122.9 129.086 123.586 127.086 124.329 125.543ZM149.357 153.486C160.157 152.457 170.214 152.457 179.529 153.6C180.786 153.771 181.643 153.657 182.043 153.143C182.443 152.4 182.329 151.714 181.7 151.029C180.1 149.486 178.043 148.114 175.643 147.029C174.9 146.686 173.814 146.743 172.329 147.2C170.9 147.6 162.957 148.629 148.614 150.343C148.043 148.457 147.129 146.857 145.814 145.657C145.871 145.6 145.986 145.486 146.157 145.371C153.186 139.771 157.357 136.686 158.786 136.229C159.871 135.886 160.271 135.2 159.986 134.229C159.757 133.314 157.7 131.771 153.929 129.6C152.843 129.029 151.586 128.971 150.271 129.486C146.9 130.686 142.614 132 137.3 133.314C135.929 133.714 133.586 133.886 130.329 133.771C128.957 133.714 128.5 134.286 129.014 135.429C129.414 136.171 130.157 136.914 131.3 137.6C133.071 138.629 134.957 138.571 136.957 137.429C138.157 137.029 141.871 135.714 147.986 133.429C148.843 133.2 149.643 133.257 150.329 133.714C151.014 134.229 151.186 134.914 150.843 135.714C149.071 138.4 147.071 141.429 144.957 144.857C144.386 144.286 143.7 143.829 142.957 143.486C142.271 143.086 141.757 143.086 141.414 143.6C141.186 143.829 141.3 144.4 141.757 145.314C142.5 146.914 143.186 148.8 143.757 150.857C137.243 151.429 131.643 152.057 126.786 152.686C121.186 153.429 116.329 153.771 112.271 153.714C111.529 153.657 111.071 153.943 110.957 154.571C110.9 155.257 111.414 156 112.443 156.857C114.9 158.571 117.014 159.2 118.786 158.571C124.957 156.4 133.471 154.914 144.443 153.943C145.814 164.971 145.414 171.943 143.129 174.971C143.071 174.971 143.014 175.029 142.957 175.143C142.557 175.371 139.586 175.086 134.1 174.286C133.414 174.057 132.9 174.057 132.557 174.4C132.214 174.457 132.557 174.914 133.586 175.714C137.243 178.743 140.1 181.543 142.1 184.171C143.186 185.371 144.386 185.657 145.586 185.029C147.014 184.286 148.271 182.114 149.243 178.514C150.5 173.943 150.786 167.771 150.1 160C149.986 157.486 149.757 155.314 149.357 153.486Z" fill="#990000"/>
<g id="XMLID_3_">
<path id="XMLID_5_" d="M24.5571 52.2286C24.5571 54.5143 23.9286 55.6 22.6714 55.6C21.4143 55.6 19.5857 54 17.2429 50.8C14.9 47.6 13.7 45.6 13.7 44.8571C13.7 44.4571 14.0429 44.2286 14.7857 44.2286C17.1286 44.2286 19.3571 44.9714 21.4143 46.5143C23.5857 48.1143 24.5571 50 24.5571 52.2286ZM32.5 56.9714C32.5 57.4857 32.2714 58.2857 31.8714 59.2C28.2143 68.1143 25.8143 74.2857 24.6143 77.6C23.4143 80.9143 22.6714 83.6571 22.3286 85.6571C21.9857 87.6571 21.4143 88.7428 20.5571 88.7428C19.7 88.7428 18.5 87.2571 16.9571 84.2857C15.4143 81.3143 14.6143 79.4286 14.6143 78.5714C14.6143 78.0571 15.0714 77.8286 15.9286 77.7714C16.7857 77.7143 17.5286 77.3714 18.1571 76.7429C18.7857 76.1143 20.2143 74.1143 22.4429 70.8C24.7286 67.4857 27.2429 63.3143 30.0429 58.3429C30.9 56.9714 31.5286 56.2857 32.1 56.2857C32.3286 56.2286 32.5 56.4571 32.5 56.9714ZM22.9 26.1714C23.6429 26.1714 25.1857 26.6286 27.5286 27.4857C29.8714 28.4 31.4143 29.5428 32.1571 30.9714C32.9 32.4571 33.2429 33.8286 33.2429 35.2571C33.2429 36.7428 32.5571 37.4857 31.3 37.4857C29.9286 37.4857 28.0429 35.8857 25.6429 32.6857C23.2429 29.4857 22.0429 27.4857 22.0429 26.7429C22.1 26.4 22.3857 26.1714 22.9 26.1714ZM55.6429 56.9714C53.1857 57.4857 50.3857 57.7714 47.1286 57.9428C46.9 59.1428 46.5571 59.7143 46.1571 59.7143C45.7571 59.7143 45.2429 59.3714 44.5571 58.6286C43.8714 57.8857 43.4714 57.0286 43.3 56C43.1286 54.9714 42.7286 53.8286 42.1 52.5143C41.4714 51.2 40.9 50.2286 40.3857 49.5428C39.8714 48.8571 39.5857 48.3428 39.5857 47.9428C39.5857 47.6 39.9857 47.4286 40.8429 47.4286C41.7 47.4286 43.0143 47.7143 44.8429 48.2286C48.2143 47.8857 51.8143 47.3714 55.6429 46.7429C55.3571 44.4571 54.9571 42.9714 54.5 42.1143C54.3857 42.1143 54.1571 42.1714 53.8143 42.2286C53.5286 42.2857 53.3 42.3429 53.1286 42.3429C52.4429 43.0286 51.9286 43.4286 51.6429 43.4286C51.3 43.4286 51.0143 43.0857 50.8429 42.3429C50.6714 41.6 50.3286 39.2 49.9286 35.0857C46.9 35.7714 44.6714 36.1714 43.3 36.1714C41.9286 36.1714 40.6143 35.8857 39.5857 35.4286C38.5 34.9143 37.9857 34.5143 37.9857 34.2286C37.9857 33.9428 38.9 33.7143 40.6143 33.6C42.3286 33.4857 45.3571 33.0286 49.6429 32.2857C48.9571 29.0286 48.1571 27.0286 47.0143 26.1714C45.9286 25.3143 45.3571 24.6286 45.3571 23.9428C45.3571 23.2571 45.8143 22.9714 46.6714 22.9714C47.5286 22.9714 48.5571 23.2571 49.7571 23.8286C50.9571 24.4 51.8714 24.9143 52.4429 25.4286C53.0143 25.9428 53.3571 26.4 53.3571 26.9143C53.3571 27.4286 53.3 27.8857 53.2429 28.4C53.1857 28.9143 53.1286 30.0571 53.1286 31.8286C57.1857 31.1428 60.9571 30.4571 64.5 29.7714C64.6714 28.2857 64.7857 27.0286 64.7857 25.9428C64.7857 24 64.5 22.6857 63.8714 21.9428C63.3 21.2571 62.9571 20.6286 62.9571 20.1714C62.9571 19.4286 63.4714 19.0286 64.5571 19.0286C65.6429 19.0286 67.0714 19.5428 68.9 20.5143C70.7286 21.5428 71.6429 22.4 71.6429 23.2C71.6429 23.4857 71.4143 24 70.9571 24.7429C70.4429 25.4857 69.8714 26.8571 69.1857 28.8571C72.6714 28.1714 75.2429 27.7714 77.0143 27.7714C78.6714 27.7714 80.1 28.0571 81.1857 28.6857C82.2714 29.3143 82.8429 29.9428 82.8429 30.5143C82.8429 31.3714 81.6429 31.7714 79.3 31.7714C76.9571 31.7714 73.1286 32 67.9286 32.4571C67.2429 34.7429 66.9571 36.1714 66.9571 36.7429C66.9571 37.3143 67.1286 37.7143 67.4714 37.9428C67.8143 38.1714 67.9857 38.4571 67.9857 38.8C67.9857 39.5428 67.4143 40 66.2143 40.1143C65.7 40.1714 64.5571 40.4 62.7286 40.8C60.9571 41.2 59.4714 41.4857 58.2714 41.6571C59.8143 43.0286 60.5571 44.2857 60.5571 45.3714C60.5571 45.5428 60.5 45.7143 60.4429 45.8857C64.6714 44.8 67.3 44 68.2714 43.5428C69.3 43.0286 70.3286 42.8 71.4143 42.8C72.4429 42.8 73.7571 43.2571 75.4714 44.1714C77.1857 45.0857 78.0429 46 78.0429 46.8571C78.0429 47.3714 77.7571 47.7714 77.3 47.9428C76.7857 48.1714 75.9286 48.6857 74.6143 49.6C73.3 50.5143 72.7286 51.2 72.7286 51.6C72.7286 52 72.9 52.4 73.2429 52.6857C73.5286 52.9714 73.7571 53.3143 73.7571 53.5428C73.7571 54.1143 72.8429 54.4571 71.0714 54.6286C69.2429 54.7429 65.4143 55.3143 59.5857 56.2286C59.4714 58.1143 59.3571 59.6 59.2429 60.6857C63.8714 59.6571 66.6714 59.2 67.5857 59.2C68.5 59.2 69.3572 59.3714 70.2714 59.7143C71.1857 60 71.5857 60.4 71.5857 60.8C71.5857 61.2 71.4143 61.4857 71.0714 61.7143C70.7286 61.8857 69.0143 62.2857 66.0429 62.9143C63.0714 63.5429 60.7286 64 59.0143 64.2286C58.7857 66.5143 58.6143 68.0571 58.5 68.7429C64.3286 68.0571 68.7857 67.4286 71.8143 66.9714C74.4429 66.4571 76.6714 66.2857 78.5572 66.2857C80.4429 66.2857 82.1572 66.8 83.6429 67.8286C85.1286 68.8571 85.9286 69.7143 85.9286 70.4571C85.9286 71.1429 85.1857 71.5429 83.7 71.5429C83.1857 71.5429 82.5572 71.4857 81.8143 71.3714C80.1 71.0857 76.9571 70.9143 72.5 70.9143C68.0429 70.9143 63.4714 71.0286 58.9 71.3714C62.6143 75.3143 66.5571 78.7428 70.5572 81.5429C74.6143 84.3428 80.2143 86.6286 87.3571 88.4C89.0714 88.7429 89.9286 89.2571 89.9286 89.8286C89.9286 90.1143 89.7 90.3428 89.2429 90.5143C88.7286 90.6286 86.9571 90.8 83.8714 91.0286C80.7857 91.2571 78.2714 91.3143 76.3857 91.3143C74.4429 91.3143 72.9571 91.2 71.9857 90.9143C71.0143 90.6286 70.2714 90.2286 69.7 89.7143C69.1857 89.2 67.4143 87.0286 64.5 83.3714C61.5857 79.7143 59.1286 76.5143 57.1857 73.8286C55.9286 77.2571 53.9857 80.2857 51.3571 82.9714C48.6714 85.6571 45.7 87.6571 42.3857 89.0286C39.0714 90.4 36.3286 91.0857 34.1571 91.0857C33.2429 91.0857 32.7286 90.8571 32.7286 90.4C32.7286 90 33.2429 89.6571 34.1571 89.3143C39.2429 87.3714 43.4714 84.8571 46.8429 81.8857C50.2143 78.9143 52.5 75.6 53.5857 72C49.8714 72.5143 46.6714 73.0857 43.9857 73.6C41.3 74.1143 39.4143 74.4 38.2143 74.4C37.0143 74.4 35.7571 74.1143 34.3286 73.4286C32.9 72.7429 32.2143 72.2286 32.2143 71.7714C32.2143 71.3714 32.9 71.1428 34.2714 71.1428C38.0429 71.1428 44.6714 70.5714 54.1571 69.3714C54.5 67.3714 54.7286 65.8857 54.8429 64.8571C52.5 65.1428 50.5571 65.3143 49.0143 65.3143C45.9286 65.3143 44.3857 64.9143 44.3857 64.0571C44.3857 63.5429 44.8429 63.3143 45.7 63.1428C48.3857 62.8571 51.5857 62.3428 55.1857 61.6571L55.6429 56.9714ZM55.7 54.4571C55.7571 53.7143 55.8143 52.8571 55.8143 52C55.8143 51.1428 55.7571 50.1714 55.7 48.9714C52.3857 49.4857 49.1857 50 46.0429 50.5714C46.3857 51.8286 46.7286 53.5428 47.0143 55.8286C50.1 55.4286 53.0143 54.9714 55.7 54.4571ZM64.0429 32.8C59.7571 33.3143 56.2143 33.8857 53.2429 34.4C53.3571 35.6 53.4714 37.4857 53.5857 40C58.7857 38.6857 61.5857 38.0571 61.9857 38C62.3857 37.9429 62.7286 37.7143 63.0714 37.2571C63.4143 36.7428 63.7 35.3143 64.0429 32.8ZM60.0429 48.1714L59.7571 53.6571C61.3 53.3714 62.9 53.0286 64.6143 52.6857C66.3286 52.3428 67.4714 52 67.9286 51.7714C68.4429 51.4857 68.8429 50.9714 69.2429 50.1143C69.5857 49.2571 69.7571 48.5714 69.7571 47.8857C69.7571 47.2 69.2429 46.9143 68.3286 46.9143C67.4714 46.9143 64.6714 47.3143 60.0429 48.1714Z" fill="black"/>
<path id="XMLID_4_" d="M83.8143 146.857C81.8714 145.657 79.5857 145.029 77.0714 145.029C75.5857 145.029 68.1571 145.943 54.7857 147.886C54.2143 146.571 53.4143 145.2 52.3857 143.829C56.2714 139.886 59.7 137.2 62.7857 135.771C64.0429 135.2 64.6714 134.457 64.6714 133.714C64.6714 133.029 63.7 131.943 61.7 130.571C59.7 129.2 58.1572 128.514 56.9571 128.514C55.7 128.514 54.6714 128.686 53.9286 129.029C51.8714 130.057 49.0714 130.914 45.5286 131.714C41.9857 132.514 39.0714 132.914 36.7286 132.914C34.9 132.914 33.9857 133.257 33.9857 134C33.9857 134.686 34.6714 135.486 35.9857 136.286C37.3 137.143 38.3857 137.543 39.2429 137.543C40.1 137.543 40.9 137.257 41.7571 136.8C42.6143 136.286 44.8429 135.429 48.3286 134.171C51.8143 132.914 53.9857 132.286 54.7857 132.286C55.5857 132.286 55.9286 132.514 55.9286 132.971C55.9286 133.429 55.4143 134.629 54.5 136.629C53.5857 138.629 52.5 140.514 51.3 142.457C50.7286 142.057 49.9857 141.657 49.0143 141.371C48.1 141.086 47.3571 140.857 46.8429 140.857C46.2714 140.857 45.9286 141.029 45.9286 141.371C45.9286 141.886 46.5571 142.629 47.8143 143.543C49.0714 144.457 50.1 146.057 50.9 148.4C31.7571 150.743 20.9 151.943 18.1571 151.943C16.3286 151.943 15.4143 152.171 15.4143 152.571C15.4143 153.086 16.1 153.829 17.5857 154.914C19.0714 156 20.2714 156.571 21.1857 156.571C22.1 156.571 23.4143 156.343 25.1857 155.943C36.3857 153.486 45.3 151.943 51.8143 151.429C52.5 154.286 52.7857 157.314 52.7857 160.4C52.7857 163.486 52.6143 166.229 52.2714 168.629C51.9286 171.029 51.3571 172.8 50.6714 173.886C49.9857 174.971 48.8429 175.486 47.4143 175.486C45.8714 175.486 44.3286 175.314 42.7857 174.971C41.2429 174.686 40.1571 174.457 39.6429 174.457C39.1286 174.457 38.8429 174.686 38.8429 175.086C38.8429 175.486 39.3571 176.057 40.4429 176.743C41.5286 177.429 42.9 178.571 44.7286 180.114C46.5 181.657 47.7571 182.971 48.4429 184C49.1286 185.029 49.8143 185.486 50.3857 185.486C51.3 185.486 52.4429 184.686 53.8143 183.086C55.1857 181.486 56.2143 179.257 57.0143 176.4C57.8143 173.543 58.2143 170.286 58.2143 166.686C58.2143 160.8 57.5857 155.6 56.3286 151.143C61.7 150.914 66.1571 150.8 69.6429 150.8C73.0714 150.8 75.7 150.971 77.4714 151.314C79.3 151.657 80.9572 151.829 82.5572 151.829C85.4143 151.829 86.8429 151.257 86.8429 150.057C86.7857 149.143 85.7571 148.057 83.8143 146.857Z" fill="black"/>
</g>
<g id="XMLID_1_">
<path id="XMLID_2_" d="M81.1857 120.743C78.3857 116.743 76.1571 114.571 74.9571 114.514C74.7286 114.514 74.2714 114.629 73.5857 114.857C71.8143 115.543 69.5286 115.943 64.5 116.457C63.0143 116.629 58.6714 117.143 53.8714 117.657C54.5 113.771 54.3857 112.914 55.1857 110.971C55.4143 110.514 55.8714 109.943 55.8714 109.657C55.9857 109.086 55.8714 108.743 55.5286 108.4C53.7 106.743 50.1 105.143 48.7286 105.029C48.2714 104.971 47.9857 104.971 47.0714 105.429C46.7857 105.543 46.7286 105.829 46.6714 106C46.6143 106.229 46.6143 106.457 46.7857 106.686C48.6714 109.943 49.3 111.886 48.9 118.229C39.3 120.114 33.5857 121.314 30.3857 121.086C30.2143 119.771 28.1 117.429 27.7 117.429H27.5857C27.3571 117.429 27.1286 118.171 27.0714 118.343C26.7286 121.314 25.9857 122.571 24.3857 124.971C22.3286 128.114 21.9286 128.857 21.6429 130.4C21.3 132.686 22.1571 134.857 23.3 134.857C25.3571 134.857 26.9 134.171 28.2143 132C29.3 130.114 29.9286 127.657 30.2714 125.371L30.4429 123.771C30.9571 123.943 31.3 124 31.5286 124C32.3286 124 33.5857 123.886 35.3571 123.429C38.9571 122.629 52.1 120.457 57.6429 119.771C62.8429 119.029 64.9571 118.8 69.1857 118.857C70.3857 118.857 72.2143 119.143 72.1 119.829C71.9857 120.514 71.6429 121.886 68.5 127.314C68.1 128 68.3857 128.286 69.1286 128L69.2429 127.943C70.7286 127.257 71.5286 126.8 73.3 126C75.0714 125.2 76.2714 124.686 76.7857 124.514C77.4714 124.171 78.2143 124 78.9 123.886C80.9571 123.657 81.7571 123.257 81.8714 122.571C81.9857 122.171 81.7571 121.543 81.1857 120.743Z" fill="black"/>
</g>
</g>
</svg>
