<svg width="40" height="40" viewBox="0 0 40 40" fill="none" xmlns="http://www.w3.org/2000/svg">
<g id="searchicon">
<path id="Vector" d="M25 6.66671H8.33333V33.3334H31.6667V13.3334H25V6.66671ZM5 4.98637C5 4.07346 5.74582 3.33337 6.66417 3.33337H26.6667L34.9995 11.6667L35 34.9875C35 35.9149 34.2585 36.6667 33.3443 36.6667H6.65567C5.74127 36.6667 5 35.9079 5 35.0137V4.98637ZM22.5483 24.0774C19.9918 25.5874 16.6439 25.244 14.4473 23.0474C11.8438 20.4439 11.8438 16.2228 14.4473 13.6193C17.0508 11.0158 21.2718 11.0158 23.8753 13.6193C26.072 15.8159 26.4153 19.1639 24.9053 21.7204L28.5895 25.4044L26.2325 27.7615L22.5483 24.0774ZM21.5183 20.6904C22.8202 19.3887 22.8202 17.278 21.5183 15.9764C20.2167 14.6746 18.1062 14.6746 16.8043 15.9764C15.5026 17.278 15.5026 19.3887 16.8043 20.6904C18.1062 21.9922 20.2167 21.9922 21.5183 20.6904Z" fill="#6C7177"/>
</g>
</svg>
