<svg width="22" height="22" viewBox="0 0 22 22" fill="none" xmlns="http://www.w3.org/2000/svg">
<path id="Vector" d="M16.8741 15.46L21.1568 19.7427L19.7426 21.1569L15.4599 16.8742C13.92 18.1062 11.9671 18.8432 9.84314 18.8432C4.87514 18.8432 0.84314 14.8112 0.84314 9.84315C0.84314 4.87515 4.87514 0.843151 9.84314 0.843151C14.8111 0.843151 18.8431 4.87515 18.8431 9.84315C18.8431 11.9672 18.1061 13.9201 16.8741 15.46ZM14.8678 14.718C16.0906 13.4578 16.8431 11.7388 16.8431 9.84315C16.8431 5.97565 13.7106 2.84315 9.84314 2.84315C5.97564 2.84315 2.84314 5.97565 2.84314 9.84315C2.84314 13.7107 5.97564 16.8432 9.84314 16.8432C11.7387 16.8432 13.4577 16.0907 14.7179 14.8679L14.8678 14.718Z" fill="black" fill-opacity="0.6"/>
</svg>
