<svg width="39" height="37" viewBox="0 0 39 37" fill="none" xmlns="http://www.w3.org/2000/svg">
<g id="XMLID_5_">
<path id="XMLID_5__2" d="M5.42857 16.6C5.42857 17.7429 5.11428 18.2857 4.48571 18.2857C3.85714 18.2857 2.94285 17.4857 1.77142 15.8857C0.599995 14.2857 0 13.2857 0 12.9143C0 12.7143 0.171427 12.6 0.542855 12.6C1.71428 12.6 2.82857 12.9714 3.85714 13.7429C4.94286 14.5429 5.42857 15.4857 5.42857 16.6ZM9.4 18.9714C9.4 19.2286 9.28571 19.6286 9.08571 20.0857C7.25714 24.5429 6.05714 27.6286 5.45714 29.2857C4.85714 30.9429 4.48572 32.3143 4.31429 33.3143C4.14286 34.3143 3.85714 34.8571 3.42857 34.8571C3 34.8571 2.39999 34.1143 1.62857 32.6286C0.857138 31.1429 0.457145 30.2 0.457145 29.7714C0.457145 29.5143 0.685713 29.4 1.11428 29.3714C1.54286 29.3429 1.91428 29.1714 2.22857 28.8571C2.54285 28.5429 3.25714 27.5429 4.37143 25.8857C5.51428 24.2286 6.77143 22.1429 8.17143 19.6571C8.6 18.9714 8.91429 18.6286 9.2 18.6286C9.31429 18.6 9.4 18.7143 9.4 18.9714ZM4.6 3.57143C4.97143 3.57143 5.74285 3.8 6.91428 4.22857C8.08571 4.68572 8.85714 5.25714 9.22857 5.97143C9.6 6.71428 9.77143 7.4 9.77143 8.11428C9.77143 8.85714 9.42857 9.22857 8.8 9.22857C8.11428 9.22857 7.17143 8.42857 5.97143 6.82857C4.77143 5.22857 4.17143 4.22857 4.17143 3.85714C4.2 3.68571 4.34286 3.57143 4.6 3.57143ZM20.9714 18.9714C19.7429 19.2286 18.3429 19.3714 16.7143 19.4571C16.6 20.0571 16.4286 20.3429 16.2286 20.3429C16.0286 20.3429 15.7714 20.1714 15.4286 19.8C15.0857 19.4286 14.8857 19 14.8 18.4857C14.7143 17.9714 14.5143 17.4 14.2 16.7429C13.8857 16.0857 13.6 15.6 13.3429 15.2571C13.0857 14.9143 12.9429 14.6571 12.9429 14.4571C12.9429 14.2857 13.1429 14.2 13.5714 14.2C14 14.2 14.6571 14.3429 15.5714 14.6C17.2571 14.4286 19.0571 14.1714 20.9714 13.8571C20.8286 12.7143 20.6286 11.9714 20.4 11.5429C20.3429 11.5429 20.2286 11.5714 20.0571 11.6C19.9143 11.6286 19.8 11.6571 19.7143 11.6571C19.3714 12 19.1143 12.2 18.9714 12.2C18.8 12.2 18.6571 12.0286 18.5714 11.6571C18.4857 11.2857 18.3143 10.0857 18.1143 8.02857C16.6 8.37143 15.4857 8.57143 14.8 8.57143C14.1143 8.57143 13.4571 8.42857 12.9429 8.2C12.4 7.94286 12.1429 7.74286 12.1429 7.6C12.1429 7.45714 12.6 7.34286 13.4571 7.28571C14.3143 7.22857 15.8286 7 17.9714 6.62857C17.6286 5 17.2286 4 16.6571 3.57143C16.1143 3.14286 15.8286 2.8 15.8286 2.45714C15.8286 2.11428 16.0571 1.97143 16.4857 1.97143C16.9143 1.97143 17.4286 2.11428 18.0286 2.4C18.6286 2.68571 19.0857 2.94286 19.3714 3.2C19.6571 3.45714 19.8286 3.68572 19.8286 3.94286C19.8286 4.2 19.8 4.42857 19.7714 4.68571C19.7429 4.94286 19.7143 5.51428 19.7143 6.4C21.7429 6.05714 23.6286 5.71429 25.4 5.37143C25.4857 4.62857 25.5429 4 25.5429 3.45714C25.5429 2.48571 25.4 1.82857 25.0857 1.45714C24.8 1.11428 24.6286 0.8 24.6286 0.571429C24.6286 0.2 24.8857 0 25.4286 0C25.9714 0 26.6857 0.25714 27.6 0.742855C28.5143 1.25714 28.9714 1.68572 28.9714 2.08572C28.9714 2.22857 28.8571 2.48571 28.6286 2.85714C28.3714 3.22857 28.0857 3.91428 27.7429 4.91429C29.4857 4.57143 30.7714 4.37143 31.6571 4.37143C32.4857 4.37143 33.2 4.51428 33.7429 4.82857C34.2857 5.14286 34.5714 5.45714 34.5714 5.74285C34.5714 6.17143 33.9714 6.37143 32.8 6.37143C31.6286 6.37143 29.7143 6.48571 27.1143 6.71429C26.7714 7.85714 26.6286 8.57143 26.6286 8.85714C26.6286 9.14286 26.7143 9.34285 26.8857 9.45714C27.0571 9.57143 27.1429 9.71428 27.1429 9.88571C27.1429 10.2571 26.8571 10.4857 26.2571 10.5429C26 10.5714 25.4286 10.6857 24.5143 10.8857C23.6286 11.0857 22.8857 11.2286 22.2857 11.3143C23.0571 12 23.4286 12.6286 23.4286 13.1714C23.4286 13.2571 23.4 13.3429 23.3714 13.4286C25.4857 12.8857 26.8 12.4857 27.2857 12.2571C27.8 12 28.3143 11.8857 28.8571 11.8857C29.3714 11.8857 30.0286 12.1143 30.8857 12.5714C31.7429 13.0286 32.1714 13.4857 32.1714 13.9143C32.1714 14.1714 32.0286 14.3714 31.8 14.4571C31.5429 14.5714 31.1143 14.8286 30.4571 15.2857C29.8 15.7429 29.5143 16.0857 29.5143 16.2857C29.5143 16.4857 29.6 16.6857 29.7714 16.8286C29.9143 16.9714 30.0286 17.1429 30.0286 17.2571C30.0286 17.5429 29.5714 17.7143 28.6857 17.8C27.7714 17.8571 25.8571 18.1429 22.9429 18.6C22.8857 19.5429 22.8286 20.2857 22.7714 20.8286C25.0857 20.3143 26.4857 20.0857 26.9429 20.0857C27.4 20.0857 27.8286 20.1714 28.2857 20.3429C28.7429 20.4857 28.9429 20.6857 28.9429 20.8857C28.9429 21.0857 28.8571 21.2286 28.6857 21.3429C28.5143 21.4286 27.6571 21.6286 26.1714 21.9429C24.6857 22.2571 23.5143 22.4857 22.6571 22.6C22.5429 23.7429 22.4571 24.5143 22.4 24.8571C25.3143 24.5143 27.5429 24.2 29.0571 23.9714C30.3714 23.7143 31.4857 23.6286 32.4286 23.6286C33.3714 23.6286 34.2286 23.8857 34.9714 24.4C35.7143 24.9143 36.1143 25.3429 36.1143 25.7143C36.1143 26.0571 35.7429 26.2571 35 26.2571C34.7429 26.2571 34.4286 26.2286 34.0571 26.1714C33.2 26.0286 31.6286 25.9429 29.4 25.9429C27.1714 25.9429 24.8857 26 22.6 26.1714C24.4571 28.1429 26.4286 29.8571 28.4286 31.2571C30.4571 32.6571 33.2571 33.8 36.8286 34.6857C37.6857 34.8571 38.1143 35.1143 38.1143 35.4C38.1143 35.5429 38 35.6571 37.7714 35.7429C37.5143 35.8 36.6286 35.8857 35.0857 36C33.5429 36.1143 32.2857 36.1429 31.3429 36.1429C30.3714 36.1429 29.6286 36.0857 29.1429 35.9429C28.6571 35.8 28.2857 35.6 28 35.3429C27.7429 35.0857 26.8571 34 25.4 32.1714C23.9429 30.3429 22.7143 28.7429 21.7429 27.4C21.1143 29.1143 20.1429 30.6286 18.8286 31.9714C17.4857 33.3143 16 34.3143 14.3429 35C12.6857 35.6857 11.3143 36.0286 10.2286 36.0286C9.77143 36.0286 9.51428 35.9143 9.51428 35.6857C9.51428 35.4857 9.77143 35.3143 10.2286 35.1429C12.7714 34.1714 14.8857 32.9143 16.5714 31.4286C18.2571 29.9429 19.4 28.2857 19.9429 26.4857C18.0857 26.7429 16.4857 27.0286 15.1429 27.2857C13.8 27.5429 12.8571 27.6857 12.2571 27.6857C11.6571 27.6857 11.0286 27.5429 10.3143 27.2C9.6 26.8571 9.25714 26.6 9.25714 26.3714C9.25714 26.1714 9.6 26.0571 10.2857 26.0571C12.1714 26.0571 15.4857 25.7714 20.2286 25.1714C20.4 24.1714 20.5143 23.4286 20.5714 22.9143C19.4 23.0571 18.4286 23.1429 17.6571 23.1429C16.1143 23.1429 15.3429 22.9429 15.3429 22.5143C15.3429 22.2571 15.5714 22.1429 16 22.0571C17.3429 21.9143 18.9429 21.6571 20.7429 21.3143L20.9714 18.9714ZM21 17.7143C21.0286 17.3429 21.0571 16.9143 21.0571 16.4857C21.0571 16.0571 21.0286 15.5714 21 14.9714C19.3429 15.2286 17.7429 15.4857 16.1714 15.7714C16.3429 16.4 16.5143 17.2571 16.6571 18.4C18.2 18.2 19.6571 17.9714 21 17.7143ZM25.1714 6.88571C23.0286 7.14285 21.2571 7.42857 19.7714 7.68571C19.8286 8.28571 19.8857 9.22857 19.9429 10.4857C22.5429 9.82857 23.9429 9.51429 24.1429 9.48571C24.3429 9.45714 24.5143 9.34286 24.6857 9.11428C24.8571 8.85714 25 8.14285 25.1714 6.88571ZM23.1714 14.5714L23.0286 17.3143C23.8 17.1714 24.6 17 25.4571 16.8286C26.3143 16.6571 26.8857 16.4857 27.1143 16.3714C27.3714 16.2286 27.5714 15.9714 27.7714 15.5429C27.9429 15.1143 28.0286 14.7714 28.0286 14.4286C28.0286 14.0857 27.7714 13.9429 27.3143 13.9429C26.8857 13.9429 25.4857 14.1429 23.1714 14.5714Z" fill="#BD2424"/>
</g>
</svg>
